<?xml version="1.0" standalone="no"?>
<!DOCTYPE svg PUBLIC "-//W3C//DTD SVG 20010904//EN"
 "http://www.w3.org/TR/2001/REC-SVG-20010904/DTD/svg10.dtd">
<svg version="1.0" xmlns="http://www.w3.org/2000/svg"
 width="1024.000000pt" height="1024.000000pt" viewBox="0 0 1024.000000 1024.000000"
 preserveAspectRatio="xMidYMid meet">
<metadata>
Created by potrace 1.14, written by Peter Selinger 2001-2017
</metadata>
<g transform="translate(0.000000,1024.000000) scale(0.100000,-0.100000)"
fill="#000000" stroke="none">
<path d="M975 7659 c-262 -51 -433 -146 -642 -355 -152 -152 -279 -392 -309
-579 -3 -22 -9 -58 -13 -80 -11 -62 -6 -413 7 -475 7 -30 14 -64 17 -75 70
-316 286 -602 589 -780 86 -51 94 -57 121 -99 35 -53 24 -178 -20 -222 -7 -8
-57 -41 -112 -75 -203 -126 -331 -254 -446 -446 -60 -99 -125 -268 -141 -366
-3 -18 -9 -52 -14 -77 -12 -65 -7 -413 7 -490 37 -196 103 -342 232 -510 60
-77 170 -184 249 -241 25 -18 47 -36 50 -40 12 -18 212 -112 285 -134 228 -69
486 -68 721 5 151 46 357 176 474 297 145 150 191 222 277 429 42 100 89 234
97 278 17 84 72 205 116 256 17 19 47 56 68 81 60 75 132 111 251 127 31 4
1071 7 2311 6 2238 -1 2255 -1 2310 -21 75 -28 176 -84 213 -119 44 -41 127
-222 201 -435 90 -257 85 -246 128 -328 147 -280 491 -545 773 -595 52 -10 76
-15 96 -21 11 -4 80 -8 152 -10 205 -5 362 28 537 113 52 26 100 50 105 55 6
4 42 31 80 59 178 131 335 331 414 528 32 82 32 81 59 218 20 99 27 399 12
484 -5 24 -11 59 -14 79 -3 20 -10 48 -15 63 -6 14 -7 26 -4 26 4 0 2 5 -5 12
-7 7 -12 21 -12 31 0 19 -4 30 -63 157 -102 222 -285 409 -558 571 -60 35 -86
87 -84 166 1 49 6 69 28 100 15 22 40 46 55 54 177 89 409 299 497 451 66 114
124 251 149 353 26 106 28 127 31 320 4 212 -11 324 -60 470 -35 102 -104 235
-146 281 -10 11 -19 23 -19 27 0 14 -161 184 -220 232 -48 40 -148 106 -180
121 -8 4 -22 13 -31 21 -9 7 -25 15 -37 18 -11 2 -33 10 -49 18 -99 51 -288
84 -460 81 -134 -3 -156 -6 -368 -59 -42 -10 -194 -89 -270 -140 -197 -132
-359 -326 -443 -532 -14 -34 -91 -251 -124 -348 -11 -33 -22 -67 -25 -75 -4
-8 -7 -17 -8 -20 -33 -96 -80 -172 -139 -222 -84 -74 -121 -97 -185 -115 -51
-15 -255 -17 -2326 -18 -1915 -2 -2279 0 -2325 12 -73 18 -215 90 -253 128
-34 34 -119 207 -167 340 -18 50 -38 106 -45 125 -7 19 -23 67 -35 105 -49
159 -170 357 -289 474 -65 64 -200 171 -215 171 -2 0 -31 15 -63 33 -82 47
-236 103 -334 122 -126 25 -327 27 -444 4z"/>
</g>
</svg>
